IKResults C02
version=1
nRows=26
nColumns=24
inDegrees=yes

Units are S.I. units (second, meters, Newtons, ...)
If the header above contains a line with 'inDegrees', this indicates whether rotational values are in degrees (yes) or radians (no).

endheader
time	pelvis_tilt	pelvis_list	pelvis_rotation	pelvis_tx	pelvis_ty	pelvis_tz	hip_flexion_r	hip_adduction_r	hip_rotation_r	knee_angle_r	ankle_angle_r	subtalar_angle_r	mtp_angle_r	hip_flexion_l	hip_adduction_l	hip_rotation_l	knee_angle_l	ankle_angle_l	subtalar_angle_l	mtp_angle_l	lumbar_extension	lumbar_bending	lumbar_rotation
      5.88000000	     -4.54575080	      0.57645964	    -82.58262313	     -0.28781201	      0.95767212	     -4.33145118	      6.23522339	      9.57953083	      1.29125612	    -17.32770606	     14.79416441	    -12.83966306	      0.00000000	     33.45123127	     -5.04954284	      4.84379869	    -68.67015246	     -3.69667747	    -24.65071176	      0.00000000	    -12.81590509	      3.98079410	      4.42815547
      5.89000000	     -4.46251751	      0.41410539	    -82.96765733	     -0.28891103	      0.95709711	     -4.31771943	      4.87648354	      9.72178219	      1.81591369	    -17.00151537	     15.40855191	    -12.89619751	      0.00000000	     34.24862801	     -5.16458572	      4.00452162	    -66.53079874	     -2.93765448	    -25.24093680	      0.00000000	    -13.10952059	      3.70527123	      5.04323360
      5.90000000	     -4.36946515	      0.29060379	    -83.42175014	     -0.28974687	      0.95618291	     -4.30393242	      3.54162186	      9.82226154	      2.40605572	    -16.63027102	     16.17801586	    -12.93620625	      0.00000000	     34.92789270	     -5.29845472	      3.06240128	    -64.04244500	     -2.47551701	    -25.85778063	      0.00000000	    -13.27658230	      3.41237222	      5.87245095
      5.91000000	     -4.31649244	      0.23311377	    -83.92181205	     -0.29069010	      0.95502819	     -4.29010172	      2.32099294	      9.94478611	      3.03475738	    -16.36804268	     16.98800765	    -12.86693683	      0.00000000	     35.56752581	     -5.51511026	      2.04148064	    -61.35540745	     -2.25798148	    -26.52504614	      0.00000000	    -13.44780467	      3.13677470	      6.82961992
      5.92000000	     -4.29185160	      0.22876753	    -84.43036876	     -0.29157365	      0.95348295	     -4.27623361	      1.28210961	     10.07629377	      3.85778736	    -16.32599717	     17.80294358	    -12.86220530	      0.00000000	     36.17144162	     -5.76961482	      1.04621157	    -58.56893254	     -2.35499569	    -27.08284342	      0.00000000	    -13.44723416	      2.90194897	      7.70115149
      5.93000000	     -4.28430709	      0.26338304	    -84.95688261	     -0.29226276	      0.95186596	     -4.26230700	      0.15519065	     10.18114285	      4.50820854	    -16.04749517	     18.23525253	    -12.83537222	      0.00000000	     36.70174040	     -6.02413221	      0.02765324	    -55.64479681	     -2.42373818	    -27.27090382	      0.00000000	    -13.42809767	      2.59182500	      8.23206588
      5.94000000	     -4.33023035	      0.35177070	    -85.50637070	     -0.29272004	      0.94994733	     -4.24845293	     -0.84780856	     10.30092097	      5.25806130	    -15.87538713	     19.12849230	    -12.82880405	      0.00000000	     37.21228582	     -6.32053203	     -0.94731227	    -52.64771886	     -2.58252625	    -27.30337824	      0.00000000	    -13.39751088	      2.59309360	      9.31684293
      5.95000000	     -4.37410332	      0.49448045	    -86.06583423	     -0.29324805	      0.94781283	     -4.23441900	     -1.83229596	     10.38806875	      5.89065719	    -15.65305245	     19.80959427	    -12.68348935	      0.00000000	     37.68944819	     -6.64678289	     -2.06794168	    -49.53896701	     -2.83168786	    -26.89719674	      0.00000000	    -13.23269093	      2.47462721	     10.30284771
      5.96000000	     -4.42441695	      0.69739463	    -86.63176078	     -0.29376916	      0.94550176	     -4.22032642	     -2.75288104	     10.43493185	      6.37384874	    -15.42141564	     20.55237824	    -12.35260627	      0.00000000	     38.13990466	     -6.93715035	     -2.98139291	    -46.37686751	     -3.04277274	    -25.80841968	      0.00000000	    -13.06299633	      2.38377202	     11.19486532
      5.97000000	     -4.48454125	      0.92272378	    -87.17649075	     -0.29412963	      0.94306229	     -4.20611115	     -3.69594814	     10.46542807	      6.78141150	    -15.11242519	     21.23551757	    -11.93461186	      0.00000000	     38.53726228	     -7.18996604	     -3.81302728	    -43.10357489	     -3.18163952	    -24.01716703	      0.00000000	    -12.84320298	      2.31081287	     11.98272449
      5.98000000	     -4.53385740	      1.17939169	    -87.68538493	     -0.29437357	      0.94054171	     -4.19187345	     -4.58951576	     10.44803357	      7.05154660	    -14.83557270	     22.00605102	    -10.80382615	      0.00000000	     38.91132379	     -7.39592713	     -4.54491001	    -39.86754870	     -1.68927646	    -20.47214313	      0.00000000	    -12.62339854	      2.19476610	     12.52880803
      5.99000000	     -4.55953643	      1.42940272	    -88.18673498	     -0.29461406	      0.93797181	     -4.17756510	     -5.50076980	     10.38789920	      7.27129702	    -14.52432594	     22.51120155	    -10.43328553	      0.00000000	     39.21632714	     -7.53612460	     -5.15991648	    -36.68552244	     -1.48143794	    -17.89848855	      0.00000000	    -12.52758617	      2.01211368	     13.13699985
      6.00000000	     -4.57591424	      1.69480397	    -88.63036315	     -0.29468016	      0.93537631	     -4.16325120	     -6.36208562	     10.30791533	      7.41080062	    -14.27620963	     22.99728095	    -10.15653265	      0.00000000	     39.47907819	     -7.56797799	     -5.62072370	    -33.58271038	     -1.60470872	    -15.68383544	      0.00000000	    -12.17503923	      2.04104771	     13.71208984
      6.01000000	     -4.56296131	      1.94358990	    -89.01296555	     -0.29451960	      0.93270517	     -4.14882892	     -7.20011608	     10.19085868	      7.48089186	    -14.11208376	     23.65518041	     -9.49946318	      0.00000000	     39.64677528	     -7.48937805	     -5.81222369	    -30.57626114	      0.58670095	    -12.28157486	      0.00000000	    -11.93348364	      1.89192364	     14.30851630
      6.02000000	     -4.51531239	      2.20908848	    -89.38138255	     -0.29428971	      0.93012385	     -4.13437621	     -7.96685108	     10.05159828	      7.69140953	    -14.05599143	     23.89169385	     -9.29801122	      0.00000000	     39.75899358	     -7.34352344	     -5.80180033	    -27.70805146	      1.07854358	     -9.43741340	      0.00000000	    -11.74494898	      1.73066899	     14.44564730
      6.03000000	     -4.42734432	      2.50257080	    -89.75095224	     -0.29387743	      0.92757396	     -4.11994591	     -8.60474491	      9.84892908	      7.82317474	    -14.15761353	     24.25979146	     -9.14633186	      0.00000000	     39.81802896	     -7.10483534	     -5.72754955	    -24.91241957	      2.95687588	     -7.35386224	      0.00000000	    -11.48054355	      1.54058531	     14.97465019
      6.04000000	     -4.32552674	      2.84431990	    -90.11884580	     -0.29340587	      0.92511556	     -4.10544012	     -9.12340028	      9.63152125	      7.98584154	    -14.37953284	     24.35554043	     -8.91910783	      0.00000000	     39.83044013	     -6.85995881	     -5.42566816	    -22.24797773	      3.06329422	     -4.91677680	      0.00000000	    -11.20373451	      1.34164283	     15.10237766
      6.05000000	     -4.20862332	      3.25891415	    -90.45711550	     -0.29282082	      0.92266350	     -4.09095121	     -9.43033225	      9.39385291	      8.07804164	    -14.79573674	     24.54388924	     -8.73054784	      0.00000000	     39.83317742	     -6.54917120	     -4.76724494	    -19.69126331	      4.68066029	     -3.36206583	      0.00000000	    -10.83913237	      1.13138483	     15.46336248
      6.06000000	     -4.07210643	      3.73038860	    -90.80364132	     -0.29224917	      0.92039464	     -4.07647204	     -9.58888001	      9.15382955	      8.20607898	    -15.34891334	     24.31140026	     -8.54984149	      0.00000000	     39.78780349	     -6.22247396	     -3.73262917	    -17.23803244	      4.61749265	     -1.51599902	      0.00000000	    -10.43056419	      0.85907350	     15.66631356
      6.07000000	     -3.88323788	      4.22562904	    -91.32456289	     -0.29176642	      0.91833881	     -4.06157586	     -9.62824508	      8.79697582	      8.39140751	    -16.10266761	     24.21529524	     -8.35844874	      0.00000000	     39.61077951	     -5.91863433	     -2.49535356	    -14.99315519	      5.66534905	     -1.17455655	      0.00000000	     -9.94921818	      0.51299208	     16.05170405
      6.08000000	     -3.63434905	      4.71086293	    -91.80601877	     -0.29104691	      0.91650696	     -4.04662244	     -9.60546325	      8.36782899	      8.55275548	    -16.95173838	     24.09706619	     -8.18093195	      0.00000000	     39.50393999	     -5.55276209	     -1.53593251	    -13.56897070	      6.54522976	     -1.25429748	      0.00000000	     -9.47370318	      0.11242777	     16.35340223
      6.09000000	     -3.39231620	      5.12359851	    -92.27696496	     -0.29022319	      0.91472307	     -4.03123094	     -9.64226158	      7.92449410	      8.69803322	    -17.83079343	     23.97331879	     -8.07243885	      0.00000000	     39.44074439	     -5.29139515	     -1.54562775	    -13.03408555	      6.87911252	     -1.39515783	      0.00000000	     -8.99426417	     -0.33802347	     16.46374313
      6.10000000	     -3.18329016	      5.49745564	    -92.72496525	     -0.28960392	      0.91296631	     -4.01557904	     -9.62030710	      7.54142961	      8.89822248	    -18.89120283	     23.66843865	     -7.86416130	      0.00000000	     39.38266308	     -5.12741451	     -2.09600531	    -13.19699478	      7.27383750	     -1.58554174	      0.00000000	     -8.53259098	     -0.71392950	     16.69504988
      6.11000000	     -2.88251850	      5.85517595	    -93.02701051	     -0.28884080	      0.91153361	     -3.99976638	     -9.54060395	      7.08346526	      8.93897795	    -20.02515088	     22.79237989	     -7.31428913	      0.00000000	     39.37308261	     -4.86123829	     -2.59408194	    -13.96535860	      6.36075471	     -0.84320775	      0.00000000	     -8.12298392	     -1.07062297	     17.07244010
      6.12000000	     -2.54677163	      6.05402126	    -93.22756252	     -0.28797708	      0.91031559	     -3.98348354	     -9.59191139	      6.57537309	      8.78311339	    -21.21159465	     22.05776227	     -6.91554748	      0.00000000	     39.10908111	     -4.51810041	     -2.86092090	    -14.81176390	      4.68750518	     -0.24098328	      0.00000000	     -7.73871773	     -1.62437832	     17.10090437
      6.13000000	     -2.03152889	      6.27829140	    -93.26171725	     -0.28677988	      0.90953719	     -3.96711016	     -9.48720833	      5.90828823	      8.42134374	    -22.52692576	     21.14103919	     -6.49838876	      0.00000000	     38.89805900	     -3.85517491	     -3.32063796	    -14.90728308	      2.74008326	     -0.28957280	      0.00000000	     -7.38375188	     -2.35521015	     16.88164086
